<?xml version="1.0" encoding="UTF-8"?>
<svg id="Layer_1" data-name="Layer_1" xmlns="http://www.w3.org/2000/svg" version="1.1" viewBox="2300 780 1790 2260">
  <defs>
    <style>
      .st0 { fill: #619cd4; }
      .st1 { isolation: isolate; }
      .st2 { fill: #4f79ab; }
      .st3 { fill: #283b5c; }
      .st4 { fill: #4573af; }
      .st5 { fill: #487ab5; }
      .st6 { fill: #528cc7; }
      .st7 { fill: #263d54; }
      .st8 { fill: #39619b; }
      .st9 { fill: #4573b0; }
      .st10 { fill: #5d99d4; }
    </style>
  </defs>
  <g>
    <polygon class="st9" points="3198.9 1077.1 3198.9 1419.4 2943.3 1283.1 2943.3 940.8 3071.1 1008.9 3194.8 1074.9 3198.9 1077.1"/>
    <polygon class="st3" points="3454.5 940.8 3454.5 1283.1 3198.9 1419.4 3198.9 1077.1 3203 1074.9 3326.7 1008.9 3454.5 940.8"/>
    <polygon class="st10" points="3454.5 940.8 3326.7 1008.9 3203 1074.9 3198.9 1077.1 3194.8 1074.9 3071.1 1008.9 2943.3 940.8 3198.9 804.5 3454.5 940.8"/>
    <path class="st6" d="M2721,1674.2v562.5l-188.6-100.6-213.2-113.7v-901.4l213.2,113.7v339l188.6,100.5Z"/>
    <path class="st4" d="M3198.9,2491.5v526.9h-4.7l2.4-1.3-480.3-256.1c-244.4-130.3-397-384.7-397-661.6v-77l213.3,113.7,188.5,100.5,24.7,13.2,453.2,241.7h0Z"/>
    <g>
      <path class="st3" d="M2745.7,1121v339l-162.8,86.8-50.5,26.9v-339l213.3-113.7Z"/>
      <path class="st3" d="M4073.8,1462.5v562.5l-213.2,113.7-183.8,98v-562.5l183.8-98,55.2-29.4,42.6-22.7,43.5-23.2,71.9-38.4Z"/>
      <path class="st3" d="M4073.9,1121v341.5l-213.3,113.7v-341.5l213.3-113.7Z"/>
      <path class="st3" d="M3676.8,2236.7v524.4l-477.9,254.8v-524.4l448.4-239.1,29.5-15.7Z"/>
      <path class="st3" d="M4073.8,2025v74.5c0,276.9-152.6,531.3-397,661.6s0-524.4,0-524.4l183.8-98,213.3-113.7h-.1Z"/>
    </g>
    <path class="st10" d="M2745.7,1121l-213.3,113.7-213.2-113.7,213.2-113.7,213.3,113.7Z"/>
    <path class="st10" d="M4073.9,1121l-213.3,113.7-213.3-113.7,213.3-113.7,213.3,113.7Z"/>
    <path class="st0" d="M3676.8,1674.2l-29.5,15.7-448.4,239.2-453.2-241.7-24.7-13.2,24.7-13.1,214.3-114.3,162.8-86.8,76.1-40.6,76.1,40.6,162.8,86.8,209.5,111.7,29.5,15.7Z"/>
    <path class="st9" d="M3860.6,1234.7v341.5l-50.5-29.4-162.8-86.8v-339l213.3,113.7Z"/>
    <path class="st8" d="M3860.6,1576.2l-183.8,98-29.5-15.7-209.5-111.7-162.8-86.8-76.1-40.6,255.6-136.3v-27.7l192.8,102.8v101.8l162.8,86.8,50.5,29.4Z"/>
    <path class="st8" d="M3198.9,1419.4l-76.1,40.6-162.8,86.8-214.3,114.3-24.7,13.1-188.6-100.5,50.5-26.9,162.8-86.8v-99.2l197.6-105.4v27.7l255.6,136.3Z"/>
    <path class="st3" d="M3676.8,1674.2v562.5l-29.5,15.7-448.4,239.1v-562.4l448.4-239.2,29.5-15.7Z"/>
    <path class="st5" d="M3198.9,1929.1v562.4l-453.2-241.6-24.7-13.2v-562.5l24.7,13.2,453.2,241.7Z"/>
    <path class="st2" d="M3672.2,1674.2h9.3v1086.8h-9.3v-1086.8Z"/>
    <path class="st2" d="M3196.9,2485.4l874.7-467.1,4.4,8.2-874.7,467.1-4.4-8.2Z"/>
  </g>
</svg>
